<?xml version="1.0" encoding="UTF-8"?>
<svg version="1.0" viewBox="0 0 96 96" xmlns="http://www.w3.org/2000/svg" xmlns:xlink="http://www.w3.org/1999/xlink">
 <defs>
  <linearGradient id="a">
   <stop stop-color="#b9b9b9" offset="0"/>
   <stop stop-color="#b9b9b9" stop-opacity="0" offset="1"/>
  </linearGradient>
  <linearGradient id="d" x1="45.448" x2="45.448" y1="92.54" y2="7.0165" gradientTransform="matrix(1.0059 0 0 .99417 100 0)" gradientUnits="userSpaceOnUse">
   <stop offset="0"/>
   <stop stop-opacity=".58824" offset="1"/>
  </linearGradient>
  <filter id="g" color-interpolation-filters="sRGB">
   <feGaussianBlur stdDeviation="1.71"/>
  </filter>
  <filter id="e" x="-.192" y="-.192" width="1.384" height="1.384" color-interpolation-filters="sRGB">
   <feGaussianBlur stdDeviation="5.28"/>
  </filter>
  <linearGradient id="c" x1="48" x2="48" y1="20.221" y2="138.66" gradientUnits="userSpaceOnUse">
   <stop stop-color="#fff" offset="0"/>
   <stop stop-color="#fff" stop-opacity="0" offset="1"/>
  </linearGradient>
  <clipPath id="j">
   <rect x="6" y="6" width="84" height="84" rx="6" ry="6" fill="#fff"/>
  </clipPath>
  <linearGradient id="o" x1="36.357" x2="36.357" y1="6" y2="63.893" gradientUnits="userSpaceOnUse" xlink:href="#b"/>
  <linearGradient id="b">
   <stop stop-color="#fff" offset="0"/>
   <stop stop-color="#fff" stop-opacity="0" offset="1"/>
  </linearGradient>
  <radialGradient id="k" cx="48" cy="90.172" r="42" gradientTransform="matrix(1.1573 0 0 .99591 -7.551 .19713)" gradientUnits="userSpaceOnUse" xlink:href="#b"/>
  <clipPath id="i">
   <rect x="6" y="6" width="84" height="84" rx="6" ry="6" fill="#fff"/>
  </clipPath>
  <filter id="p" x="-.192" y="-.192" width="1.384" height="1.384" color-interpolation-filters="sRGB">
   <feGaussianBlur stdDeviation="5.28"/>
  </filter>
  <filter id="f" color-interpolation-filters="sRGB">
   <feGaussianBlur stdDeviation="1.71"/>
  </filter>
  <linearGradient id="n" x1="4.747" x2="45.475" y1="59.505" y2="96.005" gradientUnits="userSpaceOnUse">
   <stop stop-color="#4b8bf4" offset="0"/>
   <stop stop-color="#4b8bf4" stop-opacity="0" offset="1"/>
  </linearGradient>
  <linearGradient id="m" x1="29.699" x2="39.377" y1="15.368" y2="24.118" gradientUnits="userSpaceOnUse" xlink:href="#a"/>
  <linearGradient id="l" x1="29.699" x2="39.377" y1="15.368" y2="24.118" gradientTransform="translate(39.001 .46389)" gradientUnits="userSpaceOnUse" xlink:href="#a"/>
  <filter id="h" x="-.048" y="-.048" width="1.096" height="1.096" color-interpolation-filters="sRGB">
   <feGaussianBlur stdDeviation="1.68"/>
  </filter>
 </defs>
 <g display="none">
  <rect x="105" y="7" width="86" height="85" rx="6" ry="6" fill="url(#d)" filter="url(#g)" opacity=".9"/>
 </g>
 <rect transform="scale(1,-1)" x="6" y="-90" width="84" height="84" rx="6" ry="6" filter="url(#h)"/>
 <rect transform="scale(1,-1)" x="6" y="-90" width="84" height="84" rx="6" ry="6" fill="#4580e9"/>
 <path d="m12 6c-3.324 0-6 2.676-6 6v25.547l84 0.41211v-25.959c0-3.324-2.676-6-6-6h-72z" fill="#d4d4d4" fill-rule="evenodd"/>
 <path d="m30.936 11.059l-2.7402 2.0332 0.94727 1.2012-3.1562 1.2734 9.4141 9.4141 4.2852-1.8125-1.0508-1.0918 3.9238 0.60547-11.623-11.623z" fill="url(#m)" fill-rule="evenodd"/>
 <path d="m69.937 11.522-2.7402 2.0332 0.94727 1.2012-3.1562 1.2734 9.4141 9.4141 4.2852-1.8125-1.0508-1.0918 3.9238 0.60547-11.623-11.623z" fill="url(#l)" fill-rule="evenodd"/>
 <path d="m17.037 19.297c-5.9196 0.01733-12.057 0.0638-12.566 0.15625-2.0339 0.36979-2.4023 2.7734-2.4023 2.7734l3.939 25.268 42.016-0.08203 41.967 0.08203 3.9879-25.267s-0.37044-2.4036-2.4043-2.7734c-1.3434-0.24425-25.595-0.1753-43.55-0.09391-11.159-0.05058-21.266-0.09096-30.986-0.0625z" fill="#3a67d0" fill-rule="evenodd"/>
 <path d="m69.188 28.802c-0.53588 0-10.465 3.1771-13.094 4.25-1.1634 0.47486-1.1875 0.5527-1.1875 2.7188 0 2.7149-0.07486 2.6992 5.1562 0.9375 2.1028-0.70816 3.8761-1.2812 3.9375-1.2812 0.05197 0 0.08146 5.3657 0.09375 11.969h5.2812c-3.5e-5 -3.3672-0.0026-6.7581-0.03125-9.3125-0.09105-8.1106 0.34296-9.2812-0.15625-9.2812zm-30.75 0.03125c-2.1283-0.0069-4.3032 0.38538-5.8125 1.1562-3.4916 1.7833-5.9467 5.3874-5.625 8.2188 0.11906 1.0479 0.2203 1.0803 2.0938 1.1875 2.3197 0.13275 2.828-0.20538 3.125-2.0625 0.39531-2.4721 2.8218-4.0948 6.0625-4.0938 3.5157 0.0012 5.5926 2.0555 5.5938 5.5938 0.0013 4.101-1.8885 5.7793-6.9375 6.125l-3.1875 0.21875-0.125 1.625c-0.01438 0.20072-2.43e-4 0.4031 0 0.59375h11.844c-0.19232-0.11877-0.38585-0.1875-0.5-0.1875-0.64308 0-0.42662-0.32285 1.1562-1.75 2.0578-1.8554 2.8695-3.7544 2.875-6.7188 0.0084-4.4871-2.7327-8.2151-6.9375-9.4375-1.0835-0.31499-2.348-0.46463-3.625-0.46875z" fill="#c4c7da"/>
 <path d="m6.0996 47.475l-0.099609 0.23828v36.287c0 3.324 2.676 6 6 6h36.623l-42.523-42.525z" fill="url(#n)" fill-rule="evenodd"/>
 <circle cx="28.5" cy="13.5" r="3.25" fill="#efefef"/>
 <circle cx="67.5" cy="13.75" r="3.25" fill="#efefef"/>
 <text x="30" y="54.5" fill="#000000" font-family="Calibri" font-size="40px" letter-spacing="0px" stroke-width="1px" word-spacing="0px" style="line-height:125%" xml:space="preserve"><tspan x="30" y="54.5" fill="#ffffff" font-family="Calibri"/></text>
 <text x="30.405592" y="40.668896" fill="#ffffff" font-family="sans-serif" font-size="40px" letter-spacing="0px" stroke-width="1px" word-spacing="0px" style="line-height:125%" xml:space="preserve"><tspan x="30.405592" y="40.668896" font-family="'Microsoft Sans Serif'"/></text>
 <path d="m33.625 47.375c0.01308 0.57893 0.09842 1.0359 0.21875 1.1562 0.16985 0.16985 1.6052 0.40727 3.2188 0.53125 5.336 0.41 7.3342 2.1216 7.3438 6.25 0.0066 2.7702-0.91291 4.4953-2.9375 5.5-1.9382 0.96182-5.1586 0.95294-6.8438-0.03125-1.555-0.90819-2.9062-2.8889-2.9062-4.25 0-1.2173-0.79445-1.5259-3.3438-1.3438-1.5544 0.11106-1.6044 0.17617-1.7188 1.375-0.29493 3.0915 2.5928 7.0079 6.2188 8.4375 2.7418 1.081 8.566 0.96981 10.844-0.21875 4.0669-2.1222 5.819-4.9322 5.8438-9.4688 0.01267-2.322-0.16141-3.2765-0.78125-4.4375-0.61706-1.1558-2.3644-2.7911-3.3375-3.5zm30.469 0c2e-3 1.1469 0 1.9272 0 3.1562v15.25h5.125l0.125-9.2812c0.02811-2.5114 0.0308-5.8147 0.03125-9.125z" fill="#efefef"/>
 <rect x="15" y="15" width="66" height="66" rx="12" ry="12" clip-path="url(#j)" fill="url(#c)" filter="url(#e)" opacity=".1" stroke="#fff" stroke-linecap="round" stroke-width=".5"/>
 <path d="m12 90c-3.324 0-6-2.676-6-6v-72c0-0.33472 0.04135-0.6507 0.09375-0.96875 0.0487-0.2956 0.09704-0.59692 0.1875-0.875 0.00988-0.03038 0.020892-0.0636 0.03125-0.09375 0.098865-0.28777 0.23488-0.54745 0.375-0.8125 0.14459-0.27351 0.31562-0.53562 0.5-0.78125s0.37378-0.47347 0.59375-0.6875c0.43995-0.42806 0.94291-0.81453 1.5-1.0938 0.27854-0.13961 0.57347-0.24695 0.875-0.34375-0.2562 0.10022-0.48671 0.23627-0.71875 0.375-0.00741 0.0044-0.023866-0.0045-0.03125 0-0.031933 0.0193-0.062293 0.04251-0.09375 0.0625-0.1204 0.0767-0.23102 0.16351-0.34375 0.25-0.10617 0.0808-0.21328 0.16111-0.3125 0.25-0.17793 0.16143-0.34746 0.34539-0.5 0.53125-0.10758 0.13026-0.21839 0.26528-0.3125 0.40625-0.025089 0.03838-0.038446 0.08587-0.0625 0.125-0.064763 0.10303-0.13023 0.20452-0.1875 0.3125-0.10101 0.19471-0.20567 0.4157-0.28125 0.625-0.00796 0.02181-0.023589 0.04055-0.03125 0.0625-0.031825 0.09195-0.035805 0.18683-0.0625 0.28125-0.030332 0.10662-0.070389 0.20303-0.09375 0.3125-0.072879 0.34151-0.125 0.6982-0.125 1.0625v72c0 2.7818 2.2182 5 5 5h72c2.7818 0 5-2.2182 5-5v-72c0-0.3643-0.05212-0.72099-0.125-1.0625-0.04415-0.20689-0.08838-0.39766-0.15625-0.59375-0.0077-0.02195-0.0233-0.04069-0.03125-0.0625-0.06274-0.17374-0.13838-0.36745-0.21875-0.53125-0.04158-0.0828-0.07904-0.16995-0.125-0.25-0.0546-0.09721-0.12677-0.18835-0.1875-0.28125-0.09411-0.14096-0.20492-0.276-0.3125-0.40625-0.14317-0.17445-0.30314-0.347-0.46875-0.5-0.01117-0.0102-0.01998-0.02115-0.03125-0.03125-0.13839-0.12556-0.28509-0.23444-0.4375-0.34375-0.10257-0.07315-0.20432-0.15336-0.3125-0.21875-0.0074-0.0045-0.02384 0.0044-0.03125 0-0.23204-0.13873-0.46255-0.27478-0.71875-0.375 0.30153 0.0968 0.59646 0.20414 0.875 0.34375 0.55709 0.27922 1.0601 0.66569 1.5 1.0938 0.21997 0.21403 0.40937 0.44186 0.59375 0.6875s0.35541 0.50774 0.5 0.78125c0.14012 0.26505 0.27614 0.52473 0.375 0.8125 0.01041 0.03078 0.02133 0.06274 0.03125 0.09375 0.09046 0.27808 0.1388 0.5794 0.1875 0.875 0.0524 0.31805 0.09375 0.63403 0.09375 0.96875v72c0 3.324-2.676 6-6 6h-72z" fill="url(#k)" opacity=".2"/>
 <path d="m6 47.5v36.5c0 0.33472 0.04135 0.6507 0.09375 0.96875 0.0487 0.2956 0.09704 0.59692 0.1875 0.875 0.00988 0.03038 0.020892 0.0636 0.03125 0.09375 0.098865 0.28777 0.23488 0.54745 0.375 0.8125 0.14459 0.27351 0.31562 0.53562 0.5 0.78125s0.37378 0.47347 0.59375 0.6875c0.43995 0.42806 0.94291 0.81453 1.5 1.0938 0.27854 0.13961 0.57347 0.24695 0.875 0.34375-0.2562-0.10022-0.48671-0.23627-0.71875-0.375-0.00741-0.0044-0.023866 0.0045-0.03125 0-0.031933-0.0193-0.062293-0.04251-0.09375-0.0625-0.1204-0.0767-0.23102-0.16351-0.34375-0.25-0.10617-0.0808-0.21328-0.16111-0.3125-0.25-0.17793-0.16143-0.34746-0.34539-0.5-0.53125-0.10758-0.13026-0.21839-0.26528-0.3125-0.40625-0.025089-0.03838-0.038446-0.08587-0.0625-0.125-0.064763-0.10303-0.13023-0.20452-0.1875-0.3125-0.10101-0.19471-0.20567-0.4157-0.28125-0.625-0.00796-0.02181-0.023589-0.04055-0.03125-0.0625-0.031825-0.09195-0.035805-0.18683-0.0625-0.28125-0.030332-0.10662-0.070389-0.20303-0.09375-0.3125-0.072879-0.34151-0.125-0.6982-0.125-1.0625v-37.5zm83 0v37.5c0 0.3643-0.05212 0.72099-0.125 1.0625-0.04415 0.20689-0.08838 0.39766-0.15625 0.59375-0.0077 0.02195-0.0233 0.04069-0.03125 0.0625-0.06274 0.17374-0.13838 0.36745-0.21875 0.53125-0.04158 0.0828-0.07904 0.16995-0.125 0.25-0.0546 0.09721-0.12677 0.18835-0.1875 0.28125-0.09411 0.14096-0.20492 0.276-0.3125 0.40625-0.14317 0.17445-0.30314 0.347-0.46875 0.5-0.01117 0.0102-0.01998 0.02115-0.03125 0.03125-0.13839 0.12556-0.28509 0.23444-0.4375 0.34375-0.10257 0.07315-0.20432 0.15336-0.3125 0.21875-0.0074 0.0045-0.02384-0.0044-0.03125 0-0.23204 0.13873-0.46255 0.27478-0.71875 0.375 0.30153-0.0968 0.59646-0.20414 0.875-0.34375 0.55709-0.27922 1.0601-0.66569 1.5-1.0938 0.21997-0.21403 0.40937-0.44186 0.59375-0.6875s0.35541-0.50774 0.5-0.78125c0.14012-0.26505 0.27614-0.52473 0.375-0.8125 0.01041-0.03078 0.02133-0.06274 0.03125-0.09375 0.09046-0.27808 0.1388-0.5794 0.1875-0.875 0.0524-0.31805 0.09375-0.63403 0.09375-0.96875v-36.5z" fill="url(#o)" opacity=".4"/>
 <g transform="translate(189.43 46.897)" display="none">
  <rect x="105" y="7" width="86" height="85" rx="6" ry="6" fill="url(#d)" filter="url(#f)" opacity=".9"/>
 </g>
 <g transform="translate(189.43 46.897)" display="none">
  <g display="inline">
   <rect x="15" y="15" width="66" height="66" rx="12" ry="12" clip-path="url(#i)" fill="url(#c)" filter="url(#p)" opacity=".1" stroke="#fff" stroke-linecap="round" stroke-width=".5"/>
  </g>
 </g>
</svg>
